# xmcd
#
# Track frame offsets: 
#        150
#        18376
#        35966
#        53436
#        83047
#        100085
#        121533
#        143069
#        156780
#        175886
#        198047
#        214722
#
# Disc length: 3093 seconds
#
# Revision: 0
# Processed by: cddbd v1.5.2PL0 Copyright (c) Steve Scherf et al.
# Submitted via: ExactAudioCopy v0.99pb3
#
DISCID=900c130c
DTITLE=Z Z Hill Jr - Goin' To Mississippi
DYEAR=2007
DGENRE=Blues
TTITLE0=Lean On Me
TTITLE1=It Ain't Easy
TTITLE2=Don't Let The Green Grass Fool You
TTITLE3=Now That I've Gone
TTITLE4=Caught In The Trap
TTITLE5=Late Night Deposit
TTITLE6=Stuck In Chicago
TTITLE7=Not The Cheatin' Kind
TTITLE8=Lookin' For A New Love Tonight
TTITLE9=Try Love One More Time
TTITLE10=Down Home Girl (Goin' To Mississippi)
TTITLE11=Cry A Tear For You
EXTD=
EXTT0=
EXTT1=
EXTT2=
EXTT3=
EXTT4=
EXTT5=
EXTT6=
EXTT7=
EXTT8=
EXTT9=
EXTT10=
EXTT11=
PLAYORDER=
